<svg width="795" height="241" viewBox="0 0 795 241" fill="none" xmlns="http://www.w3.org/2000/svg">
<path d="M68.9344 208.75C99.5344 208.75 109.334 194.75 109.334 177.5V130.2H90.3344V176.2C90.3344 186.55 84.9344 192.75 68.3844 192.75C58.5844 192.75 47.3344 188.3 40.2344 184.6V202.3C46.5844 205.55 57.7844 208.75 68.9344 208.75Z" fill="#6FB970"/>
<path d="M176.694 192.6C161.544 192.6 139.844 187.55 139.844 167.95C139.844 148.35 161.544 143.35 176.694 143.35C191.844 143.35 213.594 148.35 213.594 167.95C213.594 187.55 191.844 192.6 176.694 192.6ZM176.694 127.35C151.194 127.35 120.844 137.2 120.844 167.95C120.844 198.75 151.194 208.6 176.694 208.6C202.244 208.6 232.594 198.75 232.594 167.95C232.594 137.2 202.244 127.35 176.694 127.35Z" fill="#6FB970"/>
<path d="M319.323 130.1V172.65C319.323 187.7 302.023 192.65 290.773 192.65C279.473 192.65 262.223 187.7 262.223 172.65V130.1H243.223V173.3C243.223 199.2 269.873 208.65 290.773 208.65C311.623 208.65 338.323 199.2 338.323 173.3V130.1H319.323Z" fill="#6FB970"/>
<path d="M25.4598 34.1V63.55H87.6098V34.1H106.61V110H87.6098V79.55H25.4598V110H6.45975V34.1H25.4598Z" fill="#6FB970"/>
<path d="M120.827 34.1V110H209.577V94.5H139.827V79.8H204.577V64.3H139.827V49.6H209.577V34.1H120.827Z" fill="#6FB970"/>
<path d="M307.388 110H329.338L285.538 34.1H261.338L217.638 110H239.238L247.538 95.6H299.088L307.388 110ZM256.788 79.6L273.338 50.9L289.838 79.6H256.788Z" fill="#6FB970"/>
<path d="M658.388 206H680.338L636.538 130.1H612.338L568.638 206H590.238L598.538 191.6H650.088L658.388 206ZM607.788 175.6L624.338 146.9L640.838 175.6H607.788Z" fill="#6FB970"/>
<path d="M715.405 190.1V130.2H696.405V206.05H696.605V206.1H786.005V190.1H715.405Z" fill="#6FB970"/>
<path d="M405.84 50.1C413.39 50.1 421.74 50.25 421.74 59.75C421.74 69.25 413.39 69.4 405.84 69.4H361.24V50.1H405.84ZM425.29 83.25C434.99 79.6 440.74 69.95 440.74 59.75C440.74 51.15 436.59 42.5 428.79 37.95C422.79 34.45 415.99 34.1 408.89 34.1H342.24V110H361.24V85.4H404.59L418.79 110H440.74L425.29 83.25Z" fill="#6FB970"/>
<path d="M542.96 130.05V181.7L478.06 130.05H459.31V206H478.06V154.35L542.96 206H561.71V130.05H542.96Z" fill="#6FB970"/>
<path d="M411.84 146.1C419.39 146.1 427.74 146.25 427.74 155.75C427.74 165.25 419.39 165.4 411.84 165.4H367.24V146.1H411.84ZM431.29 179.25C440.99 175.6 446.74 165.95 446.74 155.75C446.74 147.15 442.59 138.5 434.79 133.95C428.79 130.45 421.99 130.1 414.89 130.1H348.24V206H367.24V181.4H410.59L424.79 206H446.74L431.29 179.25Z" fill="#6FB970"/>
</svg>
