<svg width="921" height="398" viewBox="0 0 921 398" fill="none" xmlns="http://www.w3.org/2000/svg">
<path d="M99.9344 299.75C130.534 299.75 140.334 285.75 140.334 268.5V221.2H121.334V267.2C121.334 277.55 115.934 283.75 99.3844 283.75C89.5844 283.75 78.3344 279.3 71.2344 275.6V293.3C77.5844 296.55 88.7844 299.75 99.9344 299.75Z" fill="#11232F"/>
<path d="M207.694 283.6C192.544 283.6 170.844 278.55 170.844 258.95C170.844 239.35 192.544 234.35 207.694 234.35C222.844 234.35 244.594 239.35 244.594 258.95C244.594 278.55 222.844 283.6 207.694 283.6ZM207.694 218.35C182.194 218.35 151.844 228.2 151.844 258.95C151.844 289.75 182.194 299.6 207.694 299.6C233.244 299.6 263.594 289.75 263.594 258.95C263.594 228.2 233.244 218.35 207.694 218.35Z" fill="#11232F"/>
<path d="M350.323 221.1V263.65C350.323 278.7 333.023 283.65 321.773 283.65C310.473 283.65 293.223 278.7 293.223 263.65V221.1H274.223V264.3C274.223 290.2 300.873 299.65 321.773 299.65C342.623 299.65 369.323 290.2 369.323 264.3V221.1H350.323Z" fill="#11232F"/>
<path d="M56.4598 125.1V154.55H118.61V125.1H137.61V201H118.61V170.55H56.4598V201H37.4598V125.1H56.4598Z" fill="#11232F"/>
<path d="M151.827 125.1V201H240.577V185.5H170.827V170.8H235.577V155.3H170.827V140.6H240.577V125.1H151.827Z" fill="#11232F"/>
<path d="M338.388 201H360.338L316.538 125.1H292.338L248.638 201H270.238L278.538 186.6H330.088L338.388 201ZM287.788 170.6L304.338 141.9L320.838 170.6H287.788Z" fill="#11232F"/>
<path d="M689.388 297H711.338L667.538 221.1H643.338L599.638 297H621.238L629.538 282.6H681.088L689.388 297ZM638.788 266.6L655.338 237.9L671.838 266.6H638.788Z" fill="#11232F"/>
<path d="M746.405 281.1V221.2H727.405V297.05H727.605V297.1H817.005V281.1H746.405Z" fill="#11232F"/>
<path d="M436.84 141.1C444.39 141.1 452.74 141.25 452.74 150.75C452.74 160.25 444.39 160.4 436.84 160.4H392.24V141.1H436.84ZM456.29 174.25C465.99 170.6 471.74 160.95 471.74 150.75C471.74 142.15 467.59 133.5 459.79 128.95C453.79 125.45 446.99 125.1 439.89 125.1H373.24V201H392.24V176.4H435.59L449.79 201H471.74L456.29 174.25Z" fill="#11232F"/>
<path d="M573.96 221.05V272.7L509.06 221.05H490.31V297H509.06V245.35L573.96 297H592.71V221.05H573.96Z" fill="#11232F"/>
<path d="M442.84 237.1C450.39 237.1 458.74 237.25 458.74 246.75C458.74 256.25 450.39 256.4 442.84 256.4H398.24V237.1H442.84ZM462.29 270.25C471.99 266.6 477.74 256.95 477.74 246.75C477.74 238.15 473.59 229.5 465.79 224.95C459.79 221.45 452.99 221.1 445.89 221.1H379.24V297H398.24V272.4H441.59L455.79 297H477.74L462.29 270.25Z" fill="#11232F"/>
</svg>
